<svg xmlns="http://www.w3.org/2000/svg" width="512" height="512" viewBox="0 0 512 512"><defs><linearGradient id="violet" x1="0" y1="0" x2="1" y2="1"><stop stop-color="#a984ce"/><stop offset=".55" stop-color="#8760ad"/><stop offset="1" stop-color="#67468e"/></linearGradient></defs><rect width="512" height="512" fill="url(#violet)"/><circle cx="256" cy="256" r="187" fill="none" stroke="#ffffff" stroke-opacity=".12" stroke-width="2"/><path d="M330 180 C310 151 276 138 242 142 C177 148 145 198 147 256 C149 317 189 358 247 360 C273 361 291 354 307 344" fill="none" stroke="#fff9ff" stroke-width="48" stroke-linecap="round"/><g fill="#eee0f8" fill-opacity=".86"><ellipse cx="361" cy="321" rx="13" ry="26" transform="rotate(0 361 361)"/><ellipse cx="361" cy="321" rx="13" ry="26" transform="rotate(45 361 361)"/><ellipse cx="361" cy="321" rx="13" ry="26" transform="rotate(90 361 361)"/><ellipse cx="361" cy="321" rx="13" ry="26" transform="rotate(135 361 361)"/><ellipse cx="361" cy="321" rx="13" ry="26" transform="rotate(180 361 361)"/><ellipse cx="361" cy="321" rx="13" ry="26" transform="rotate(225 361 361)"/><ellipse cx="361" cy="321" rx="13" ry="26" transform="rotate(270 361 361)"/><ellipse cx="361" cy="321" rx="13" ry="26" transform="rotate(315 361 361)"/></g><circle cx="361" cy="361" r="15" fill="#fff9ff"/><circle cx="361" cy="361" r="7" fill="#8760ad"/></svg>